<svg height="512pt" viewBox="-46 0 512 512.001" width="512pt" xmlns="http://www.w3.org/2000/svg"><path d="m404.710938 165.878906c-20.84375-62.703125-60.601563-75.863281-90.285157-75.863281-1.683593 0-3.296875.289063-4.804687.800781-21.195313-19.3125-49.148438-30.800781-79.128906-30.800781-2.703126 0-5.230469.722656-7.417969 1.972656-2.453125-1.832031-4.953125-3.617187-7.527344-5.316406-24.945313-16.453125-53.777344-25.578125-83.699219-26.558594-6.722656-5.316406-13.660156-10.371093-20.808594-15.136719l-11.03125-7.363281c-7.421874-4.980469-16.0625-7.613281-24.980468-7.613281-24.828125 0-45.027344 20.183594-45.027344 44.996094 0 15.078125 7.480469 29.078125 20.011719 37.4375l11.085937 7.40625c.886719.59375 88.898438 60.097656 88.898438 133.042968 0 9.445313-7.683594 17.128907-17.128906 17.128907-5.957032 0-11.558594-2.320313-15.769532-6.535157l-40.28125-40.28125c-8.5-8.503906-19.800781-13.183593-31.816406-13.183593-24.8125 0-45 20.1875-45 45 0 23.324219 20.167969 41.839843 45.695312 65.277343 44.019532 40.410157 104.300782 95.753907 104.300782 206.710938 0 8.285156 6.714844 15 15 15h179.992187c8.285157 0 15-6.714844 15-15v-1.570312c0-40.496094 11.59375-61.847657 25.015625-86.578126 16.019532-29.515624 34.179688-62.972656 34.179688-131.238281 0-45.886719-4.734375-82.4375-14.472656-111.734375zm-46.074219 228.664063c-12.714844 23.425781-25.824219 47.578125-28.25 87.460937h-150.734375c-5.253906-114.292968-70.132813-173.847656-113.667969-213.8125-18.503906-16.992187-35.984375-33.039062-35.984375-43.183594 0-7.210937 5.734375-14.996093 15-14.996093 4.003906 0 7.769531 1.558593 10.601562 4.394531l40.285157 40.285156c9.878906 9.875 23.011719 15.316406 36.980469 15.316406 25.984374 0 47.125-21.140624 47.125-47.15625 0-88.792968-98.082032-155.191406-102.246094-157.964843l-11.078125-7.402344c-4.175781-2.789063-6.671875-7.457031-6.671875-12.488281 0-8.269532 6.742187-14.996094 15.027344-14.996094 2.949218 0 5.808593.871094 8.300781 2.546875l11.066406 7.386719c53.664063 35.769531 94.445313 89.164062 114.832031 150.34375 2.621094 7.855468 11.113282 12.105468 18.972656 9.484375 7.859376-2.617188 12.105469-11.113281 9.488282-18.972657-13.859375-41.589843-36.277344-79.910156-65.285156-112.433593 33.359374 12.460937 60.886718 38.089843 74.171874 71.355469 9.199219 23.03125 16.304688 47.621093 21.117188 73.085937 1.359375 7.199219 7.652344 12.214844 14.71875 12.214844.925781 0 1.863281-.085938 2.804688-.261719 8.136718-1.539062 13.492187-9.382812 11.953124-17.523438-5.167968-27.359374-12.816406-53.816406-22.734374-78.644531-5.03125-12.601562-11.664063-24.363281-19.703126-35.09375 29.140626 8.488281 52.710938 31.917969 60.894532 62.695313 6.023437 22.644531 10.175781 46.257812 12.347656 70.183594.707031 7.789062 7.25 13.644531 14.921875 13.644531.453125 0 .910156-.023438 1.371094-.0625 8.25-.75 14.332031-8.042969 13.582031-16.292969-2.320312-25.609375-6.773438-50.90625-13.230469-75.183594-2.324219-8.746094-5.601562-17.03125-9.664062-24.792968 44.238281 17.078124 54.234375 90.820312 54.234375 153.933593 0 60.652344-15.527344 89.261719-30.546875 116.929688zm0 0"/></svg>